<?xml version="1.0" encoding="utf-8"?>
<svg width="100%" height="100%" viewBox="0 0 700 700" version="1.1" style="fill-rule:evenodd;clip-rule:evenodd;stroke-linejoin:round;stroke-miterlimit:2;" xmlns="http://www.w3.org/2000/svg">
  <path d="M 351.642 0.477 C 439.695 0.895 526.612 35.554 590.618 96.218 C 643.684 146.513 680.487 213.694 693.842 285.74 C 711.13 379.019 688.504 479.236 632.151 555.997 C 581.027 625.636 503.276 675.387 418.705 692.16 C 330.613 709.63 236.017 691.661 160.586 642.638 C 77.232 588.467 18.626 497.662 4.725 398.445 C -7.913 308.247 16.249 213.634 70.75 140.776 C 133.653 56.688 234.704 2.958 342.634 0.562 C 345.633 0.496 348.632 0.472 351.642 0.477 Z M 349.471 27.764 C 268.166 28.151 187.934 60.334 129.178 116.023 C 80.74 161.933 46.985 223.051 34.386 288.739 C 17.909 374.635 38.05 466.997 89.728 538.283 C 136.746 603.138 208.826 649.766 287.628 665.394 C 368.863 681.503 456.047 664.942 525.57 619.759 C 602.366 569.848 656.467 486.074 669.275 394.657 C 680.943 311.393 658.671 224.293 608.425 157.123 C 550.481 79.658 457.373 30.055 357.785 27.844 C 355.016 27.782 352.248 27.76 349.471 27.764 Z" style=""/>
  <g style="" transform="matrix(1.240334, 0, 0, 1.240334, -92.583916, -97.374199)">
    <path d="M148.533,411.862l33.884,0l0,-42.946l12.214,0l22.064,42.946l37.824,0l-27.777,-49.644c12.411,-6.698 20.685,-18.715 20.685,-37.036c0,-31.914 -23.64,-41.37 -51.22,-41.37l-47.674,0l0,128.05Zm33.884,-69.738l0,-31.52l11.426,0c13.396,0 20.488,3.546 20.488,14.578c0,11.032 -7.092,16.942 -20.488,16.942l-11.426,0Z" style="fill-rule:nonzero;"/>
    <path d="M471.977,411.862l33.884,0l0,-40.582l14.184,0c26.792,0 51.22,-13.593 51.22,-44.916c0,-32.308 -23.64,-42.552 -51.22,-42.552l-48.068,0l0,128.05Zm33.884,-67.374l0,-33.884l12.608,0c12.608,0 19.7,4.334 19.7,15.76c0,11.426 -6.304,18.124 -19.7,18.124l-12.608,0Z" style="fill-rule:nonzero;"/>
  </g>
  <g style="" transform="matrix(1.240334, 0, 0, 1.240334, -92.583916, -97.374199)">
    <path d="M452.338,250.504l-194.595,194.595l4.398,4.397l194.595,-194.595l-4.398,-4.397Z"/>
    <path d="M456.736,445.099l-194.595,-194.595l-4.398,4.397l194.595,194.595l4.398,-4.397Z"/>
  </g>
  <g style="" transform="matrix(1.240334, 0, 0, 1.240334, -92.583916, -97.374199)">
    <path d="M251.358,484.861l0,10.687l-2.989,0l0,-25.699l7.049,0c3.153,0 5.482,0.603 6.988,1.811c1.505,1.207 2.258,3.023 2.258,5.449c0,3.398 -1.722,5.695 -5.168,6.89l6.979,11.549l-3.533,0l-6.223,-10.687l-5.361,0Zm0,-2.567l4.095,0c2.11,0 3.657,-0.419 4.641,-1.257c0.984,-0.837 1.477,-2.094 1.477,-3.77c0,-1.699 -0.501,-2.924 -1.503,-3.674c-1.002,-0.75 -2.611,-1.125 -4.825,-1.125l-3.885,0l0,9.826Z" style="fill-rule:nonzero;"/>
    <path d="M284.95,495.548l-14.327,0l0,-25.699l14.327,0l0,2.654l-11.338,0l0,8.28l10.652,0l0,2.636l-10.652,0l0,9.457l11.338,0l0,2.672Z" style="fill-rule:nonzero;"/>
    <path d="M306.799,495.548l-3.199,-8.174l-10.301,0l-3.164,8.174l-3.023,0l10.16,-25.805l2.513,0l10.108,25.805l-3.094,0Zm-4.131,-10.863l-2.988,-7.963c-0.387,-1.008 -0.785,-2.244 -1.195,-3.709c-0.258,1.125 -0.627,2.361 -1.108,3.709l-3.023,7.963l8.314,0Z" style="fill-rule:nonzero;"/>
    <path d="M327.928,488.71c0,2.262 -0.82,4.026 -2.461,5.291c-1.641,1.266 -3.867,1.899 -6.68,1.899c-3.046,0 -5.39,-0.393 -7.031,-1.178l0,-2.883c1.055,0.446 2.203,0.797 3.445,1.055c1.243,0.258 2.473,0.387 3.692,0.387c1.992,0 3.492,-0.378 4.5,-1.134c1.008,-0.756 1.512,-1.808 1.512,-3.155c0,-0.891 -0.179,-1.621 -0.537,-2.189c-0.357,-0.568 -0.955,-1.093 -1.792,-1.573c-0.838,-0.481 -2.113,-1.026 -3.824,-1.635c-2.39,-0.855 -4.098,-1.869 -5.124,-3.041c-1.025,-1.172 -1.538,-2.701 -1.538,-4.588c0,-1.98 0.744,-3.556 2.233,-4.728c1.488,-1.172 3.457,-1.758 5.906,-1.758c2.555,0 4.904,0.469 7.049,1.406l-0.932,2.602c-2.121,-0.891 -4.184,-1.336 -6.187,-1.336c-1.583,0 -2.819,0.34 -3.709,1.019c-0.891,0.68 -1.336,1.623 -1.336,2.83c0,0.891 0.164,1.62 0.492,2.189c0.328,0.568 0.882,1.09 1.661,1.564c0.779,0.475 1.972,0.999 3.577,1.573c2.695,0.961 4.55,1.993 5.564,3.094c1.013,1.102 1.52,2.531 1.52,4.289Z" style="fill-rule:nonzero;"/>
    <path d="M355.491,482.663c0,4.114 -1.04,7.348 -3.121,9.704c-2.08,2.355 -4.971,3.533 -8.674,3.533c-3.786,0 -6.706,-1.157 -8.763,-3.472c-2.057,-2.314 -3.085,-5.581 -3.085,-9.8c0,-4.183 1.031,-7.427 3.094,-9.729c2.062,-2.303 4.992,-3.454 8.789,-3.454c3.691,0 6.574,1.172 8.648,3.515c2.074,2.344 3.112,5.578 3.112,9.703Zm-20.479,0c0,3.481 0.741,6.121 2.224,7.919c1.482,1.799 3.635,2.699 6.46,2.699c2.847,0 4.998,-0.897 6.451,-2.69c1.453,-1.793 2.179,-4.435 2.179,-7.928c0,-3.457 -0.723,-6.079 -2.17,-7.866c-1.448,-1.787 -3.589,-2.68 -6.425,-2.68c-2.848,0 -5.013,0.899 -6.495,2.698c-1.483,1.799 -2.224,4.415 -2.224,7.848Z" style="fill-rule:nonzero;"/>
    <path d="M381.295,495.548l-3.41,0l-14.045,-21.568l-0.14,0c0.187,2.531 0.281,4.851 0.281,6.961l0,14.607l-2.76,0l0,-25.699l3.375,0l14.01,21.48l0.14,0c-0.023,-0.316 -0.076,-1.333 -0.158,-3.049c-0.082,-1.717 -0.111,-2.945 -0.088,-3.683l0,-14.748l2.795,0l0,25.699Z" style="fill-rule:nonzero;"/>
    <path d="M404.516,495.548l-3.199,-8.174l-10.301,0l-3.164,8.174l-3.024,0l10.161,-25.805l2.513,0l10.108,25.805l-3.094,0Zm-4.131,-10.863l-2.988,-7.963c-0.387,-1.008 -0.785,-2.244 -1.196,-3.709c-0.257,1.125 -0.626,2.361 -1.107,3.709l-3.023,7.963l8.314,0Z" style="fill-rule:nonzero;"/>
    <path d="M411.143,469.849l7.26,0c3.41,0 5.877,0.51 7.4,1.529c1.523,1.02 2.285,2.631 2.285,4.834c0,1.524 -0.425,2.781 -1.274,3.771c-0.85,0.99 -2.089,1.632 -3.718,1.925l0,0.175c3.902,0.668 5.854,2.719 5.854,6.153c0,2.297 -0.777,4.09 -2.33,5.379c-1.552,1.289 -3.723,1.933 -6.512,1.933l-8.965,0l0,-25.699Zm2.988,11.004l4.922,0c2.109,0 3.627,-0.331 4.553,-0.993c0.926,-0.662 1.388,-1.779 1.388,-3.349c0,-1.441 -0.515,-2.481 -1.546,-3.12c-1.032,-0.639 -2.672,-0.958 -4.922,-0.958l-4.395,0l0,8.42Zm0,2.531l0,9.615l5.362,0c2.074,0 3.635,-0.401 4.684,-1.204c1.049,-0.802 1.573,-2.059 1.573,-3.77c0,-1.594 -0.536,-2.766 -1.608,-3.516c-1.072,-0.75 -2.704,-1.125 -4.896,-1.125l-5.115,0Z" style="fill-rule:nonzero;"/>
    <path d="M434.469,495.548l0,-25.699l2.988,0l0,22.992l11.338,0l0,2.707l-14.326,0Z" style="fill-rule:nonzero;"/>
    <path d="M467.481,495.548l-14.326,0l0,-25.699l14.326,0l0,2.654l-11.338,0l0,8.28l10.652,0l0,2.636l-10.652,0l0,9.457l11.338,0l0,2.672Z" style="fill-rule:nonzero;"/>
    <path d="M312.011,517.337c0,2.602 -0.888,4.603 -2.663,6.003c-1.775,1.401 -4.315,2.101 -7.62,2.101l-3.024,0l0,10.107l-2.988,0l0,-25.699l6.662,0c6.422,0 9.633,2.496 9.633,7.488Zm-13.307,5.537l2.69,0c2.648,0 4.564,-0.427 5.748,-1.283c1.184,-0.855 1.775,-2.226 1.775,-4.113c0,-1.699 -0.556,-2.965 -1.67,-3.797c-1.113,-0.832 -2.847,-1.248 -5.203,-1.248l-3.34,0l0,10.441Z" style="fill-rule:nonzero;"/>
    <path d="M331.716,535.548l-14.326,0l0,-25.699l14.326,0l0,2.654l-11.338,0l0,8.28l10.653,0l0,2.636l-10.653,0l0,9.457l11.338,0l0,2.672Z" style="fill-rule:nonzero;"/>
    <path d="M359.718,522.663c0,4.114 -1.04,7.348 -3.12,9.704c-2.08,2.355 -4.972,3.533 -8.675,3.533c-3.785,0 -6.706,-1.157 -8.763,-3.472c-2.056,-2.314 -3.084,-5.581 -3.084,-9.8c0,-4.183 1.031,-7.427 3.093,-9.729c2.063,-2.303 4.992,-3.454 8.789,-3.454c3.692,0 6.575,1.172 8.649,3.515c2.074,2.344 3.111,5.578 3.111,9.703Zm-20.478,0c0,3.481 0.741,6.121 2.223,7.919c1.483,1.799 3.636,2.699 6.46,2.699c2.848,0 4.998,-0.897 6.451,-2.69c1.453,-1.793 2.18,-4.435 2.18,-7.928c0,-3.457 -0.724,-6.079 -2.171,-7.866c-1.447,-1.787 -3.589,-2.68 -6.425,-2.68c-2.847,0 -5.012,0.899 -6.495,2.698c-1.482,1.799 -2.223,4.415 -2.223,7.848Z" style="fill-rule:nonzero;"/>
    <path d="M381.743,517.337c0,2.602 -0.887,4.603 -2.663,6.003c-1.775,1.401 -4.315,2.101 -7.62,2.101l-3.023,0l0,10.107l-2.988,0l0,-25.699l6.662,0c6.422,0 9.632,2.496 9.632,7.488Zm-13.306,5.537l2.689,0c2.649,0 4.565,-0.427 5.748,-1.283c1.184,-0.855 1.776,-2.226 1.776,-4.113c0,-1.699 -0.557,-2.965 -1.67,-3.797c-1.113,-0.832 -2.848,-1.248 -5.203,-1.248l-3.34,0l0,10.441Z" style="fill-rule:nonzero;"/>
    <path d="M387.122,535.548l0,-25.699l2.989,0l0,22.992l11.338,0l0,2.707l-14.327,0Z" style="fill-rule:nonzero;"/>
    <path d="M420.134,535.548l-14.326,0l0,-25.699l14.326,0l0,2.654l-11.338,0l0,8.28l10.653,0l0,2.636l-10.653,0l0,9.457l11.338,0l0,2.672Z" style="fill-rule:nonzero;"/>
  </g>
  <g id="Coffee-mug" style="" transform="matrix(1.240334, 0, 0, 1.240334, -92.583916, -97.374199)">
    <path d="M360.476,205.817c27.767,-11.217 -5.119,-22.492 11.28,-37.046c-27.243,18.523 4.937,24.549 -11.28,37.046Z" style="fill-rule:nonzero;"/>
    <path d="M345.642,201.466c21.244,-8.582 -3.916,-17.209 8.63,-28.344c-20.843,14.172 3.778,18.783 -8.63,28.344Z" style="fill-rule:nonzero;"/>
    <path d="M386.726,212.711l0,7.445l7.541,0c6.593,0 11.957,5.692 11.957,12.69l0,14.7c0,12.744 -8.38,22.913 -19.498,24.269l0,9.884c0,4.138 -3.16,7.491 -7.058,7.491l-42.354,0c-3.899,0 -7.059,-3.354 -7.059,-7.491l0,-68.988l56.471,0Zm0,52.067c7.427,-1.331 12.932,-8.42 12.932,-17.232l0,-14.7c0,-3.155 -2.419,-5.722 -5.391,-5.722l-7.541,0l0,37.654Z" style="fill-rule:nonzero;"/>
  </g>
</svg>